<svg width="150" height="150" viewBox="0 0 150 150" fill="none" xmlns="http://www.w3.org/2000/svg">
<g clip-path="url(#clip0_204_554)">
<rect width="150" height="150" rx="10" fill="#373737"/>
<path d="M137.202 80.7468C137.202 80.2525 137.321 79.798 137.559 79.3832C137.806 78.9683 138.137 78.6374 138.552 78.3902C138.967 78.1431 139.426 78.0195 139.929 78.0195C140.441 78.0195 140.904 78.1431 141.319 78.3902C141.734 78.6374 142.06 78.9683 142.299 79.3832C142.546 79.798 142.669 80.2525 142.669 80.7468C142.669 81.2411 142.546 81.7 142.299 82.1237C142.06 82.5385 141.734 82.8695 141.319 83.1166C140.904 83.3637 140.441 83.4873 139.929 83.4873C139.426 83.4873 138.967 83.3637 138.552 83.1166C138.137 82.8695 137.806 82.5385 137.559 82.1237C137.321 81.7 137.202 81.2411 137.202 80.7468Z" fill="#F0F0F0"/>
<path d="M130.354 82.3091C129.833 82.6533 129.202 82.9357 128.46 83.1564C127.719 83.3771 126.916 83.4874 126.051 83.4874C124.339 83.4874 123.05 83.0461 122.185 82.1635C121.32 81.272 120.888 80.0893 120.888 78.6154V71.5456H117.843V69.0699H120.888V65.9852L124.383 65.5615V69.0699H129.016L128.659 71.5456H124.383V78.6021C124.383 79.3259 124.559 79.8554 124.912 80.1908C125.265 80.5262 125.835 80.6939 126.62 80.6939C127.123 80.6939 127.582 80.6365 127.997 80.5218C128.421 80.3982 128.805 80.2438 129.149 80.0584L130.354 82.3091Z" fill="#F0F0F0"/>
<path d="M110.439 69.0697V80.6143H114.132V83.09H102.839V80.6143H106.943V71.5454H102.972V69.0697H110.439ZM108.175 62C108.819 62 109.34 62.1986 109.737 62.5958C110.143 62.9929 110.346 63.4872 110.346 64.0786C110.346 64.6699 110.143 65.1686 109.737 65.5746C109.34 65.9718 108.819 66.1703 108.175 66.1703C107.53 66.1703 107.005 65.9718 106.599 65.5746C106.193 65.1686 105.99 64.6699 105.99 64.0786C105.99 63.4872 106.193 62.9929 106.599 62.5958C107.005 62.1986 107.53 62 108.175 62Z" fill="#F0F0F0"/>
<path d="M95.4359 77.6882C95.4359 76.9468 95.2903 76.3687 94.999 75.9539C94.7166 75.5391 94.3238 75.2478 93.8207 75.0801C93.3176 74.9036 92.7439 74.8153 92.0996 74.8153H89.849V80.3758H91.9408C92.3732 80.3758 92.7969 80.3405 93.2117 80.2699C93.6266 80.1993 94.0017 80.0713 94.3371 79.8859C94.6813 79.6918 94.9505 79.4181 95.1446 79.0651C95.3388 78.7121 95.4359 78.2531 95.4359 77.6882ZM94.7342 69.758C94.7342 68.9283 94.4739 68.3325 93.9531 67.9707C93.4412 67.6088 92.6822 67.4279 91.676 67.4279H89.849V72.2602H91.8349C92.8234 72.2602 93.5515 72.066 94.0193 71.6776C94.4959 71.2805 94.7342 70.6406 94.7342 69.758ZM99.1958 77.7809C99.1958 78.8136 98.9928 79.6741 98.5868 80.3625C98.1897 81.051 97.6469 81.5938 96.9584 81.991C96.27 82.3881 95.4889 82.6706 94.6151 82.8383C93.7501 83.006 92.8454 83.0898 91.9011 83.0898H86.2214V64.78H91.5701C92.4703 64.78 93.3265 64.8551 94.1385 65.0051C94.9505 65.1551 95.6742 65.4111 96.3097 65.773C96.954 66.126 97.4615 66.6026 97.8322 67.2028C98.2117 67.803 98.4015 68.5488 98.4015 69.4402C98.4015 70.1904 98.2426 70.8347 97.9249 71.3731C97.616 71.9115 97.2011 72.3484 96.6804 72.6838C96.1685 73.0104 95.6168 73.2487 95.0255 73.3987C95.6875 73.5046 96.3362 73.7121 96.9717 74.021C97.616 74.3211 98.1455 74.7756 98.5604 75.3846C98.984 75.9848 99.1958 76.7836 99.1958 77.7809Z" fill="#F0F0F0"/>
<path d="M83.3193 69.0698L78.5664 83.1166C78.1781 84.264 77.675 85.2481 77.0572 86.0689C76.4393 86.8898 75.6582 87.5385 74.7138 88.0151C73.7782 88.5005 72.6309 88.7874 71.2716 88.8756L70.8347 86.347C71.7791 86.2146 72.5338 86.016 73.0986 85.7512C73.6635 85.4864 74.1136 85.1378 74.449 84.7053C74.7933 84.2728 75.0889 83.7344 75.3361 83.0901H74.1445L69.5505 69.0698H73.2443L76.4217 80.76L79.7315 69.0698H83.3193Z" fill="#F0F0F0"/>
<path d="M58.2412 70.6452C58.709 70.0274 59.2607 69.5464 59.8961 69.2021C60.5404 68.8491 61.2333 68.6726 61.9747 68.6726C63.2015 68.6726 64.1945 68.9771 64.9535 69.5861C65.7214 70.1863 66.2818 71.038 66.6349 72.1412C66.9968 73.2445 67.1777 74.5464 67.1777 76.0468C67.1777 77.4855 66.9659 78.7652 66.5422 79.8862C66.1186 81.0071 65.4875 81.8897 64.649 82.534C63.8193 83.1695 62.7999 83.4872 61.5908 83.4872C60.0727 83.4872 58.8767 82.9091 58.0029 81.7529L57.8441 83.09H54.7461V63.4696L58.2412 63.0989V70.6452ZM60.6905 80.8791C61.5819 80.8791 62.2792 80.4996 62.7823 79.7405C63.2854 78.9815 63.5369 77.7635 63.5369 76.0865C63.5369 74.9038 63.431 73.9638 63.2192 73.2666C63.0162 72.5605 62.7205 72.0574 62.3321 71.7573C61.9526 71.4484 61.4937 71.2939 60.9553 71.2939C60.3727 71.2939 59.8564 71.4705 59.4063 71.8235C58.965 72.1765 58.5766 72.6134 58.2412 73.1342V79.4095C58.5413 79.8773 58.8944 80.2392 59.3004 80.4952C59.7064 80.7511 60.1697 80.8791 60.6905 80.8791Z" fill="#F0F0F0"/>
<path d="M50.9703 82.3091C50.4495 82.6533 49.8184 82.9357 49.0771 83.1564C48.3357 83.3771 47.5325 83.4874 46.6675 83.4874C44.9553 83.4874 43.6666 83.0461 42.8017 82.1635C41.9367 81.272 41.5042 80.0893 41.5042 78.6154V71.5456H38.4592V69.0699H41.5042V65.9852L44.9994 65.5615V69.0699H49.6331L49.2756 71.5456H44.9994V78.6021C44.9994 79.3259 45.1759 79.8554 45.529 80.1908C45.882 80.5262 46.4513 80.6939 47.2368 80.6939C47.7399 80.6939 48.1989 80.6365 48.6137 80.5218C49.0373 80.3982 49.4213 80.2438 49.7655 80.0584L50.9703 82.3091Z" fill="#F0F0F0"/>
<path d="M31.0552 69.0697V80.6143H34.749V83.09H23.4559V80.6143H27.5601V71.5454H23.5883V69.0697H31.0552ZM28.7913 62C29.4356 62 29.9564 62.1986 30.3535 62.5958C30.7595 62.9929 30.9625 63.4872 30.9625 64.0786C30.9625 64.6699 30.7595 65.1686 30.3535 65.5746C29.9564 65.9718 29.4356 66.1703 28.7913 66.1703C28.147 66.1703 27.6219 65.9718 27.2159 65.5746C26.8099 65.1686 26.6069 64.6699 26.6069 64.0786C26.6069 63.4872 26.8099 62.9929 27.2159 62.5958C27.6219 62.1986 28.147 62 28.7913 62Z" fill="#F0F0F0"/>
<path d="M16.0524 77.6882C16.0524 76.9468 15.9067 76.3687 15.6155 75.9539C15.333 75.5391 14.9403 75.2478 14.4372 75.0801C13.9341 74.9036 13.3604 74.8153 12.7161 74.8153H10.4654V80.3758H12.5572C12.9897 80.3758 13.4134 80.3405 13.8282 80.2699C14.243 80.1993 14.6181 80.0713 14.9535 79.8859C15.2977 79.6918 15.5669 79.4181 15.7611 79.0651C15.9553 78.7121 16.0524 78.2531 16.0524 77.6882ZM15.3507 69.758C15.3507 68.9283 15.0903 68.3325 14.5696 67.9707C14.0577 67.6088 13.2986 67.4279 12.2924 67.4279H10.4654V72.2602H12.4513C13.4398 72.2602 14.168 72.066 14.6358 71.6776C15.1124 71.2805 15.3507 70.6406 15.3507 69.758ZM19.8123 77.7809C19.8123 78.8136 19.6093 79.6741 19.2033 80.3625C18.8061 81.051 18.2633 81.5938 17.5749 81.991C16.8864 82.3881 16.1053 82.6706 15.2315 82.8383C14.3666 83.006 13.4619 83.0898 12.5175 83.0898H6.83789V64.78H12.1865C13.0868 64.78 13.9429 64.8551 14.7549 65.0051C15.5669 65.1551 16.2907 65.4111 16.9261 65.773C17.5705 66.126 18.078 66.6026 18.4487 67.2028C18.8282 67.803 19.0179 68.5488 19.0179 69.4402C19.0179 70.1904 18.8591 70.8347 18.5413 71.3731C18.2324 71.9115 17.8176 72.3484 17.2968 72.6838C16.7849 73.0104 16.2333 73.2487 15.6419 73.3987C16.3039 73.5046 16.9526 73.7121 17.5881 74.021C18.2324 74.3211 18.762 74.7756 19.1768 75.3846C19.6005 75.9848 19.8123 76.7836 19.8123 77.7809Z" fill="#F0F0F0"/>
</g>
<defs>
<clipPath id="clip0_204_554">
<rect width="150" height="150" rx="10" fill="white"/>
</clipPath>
</defs>
</svg>
